<svg xmlns="http://www.w3.org/2000/svg" viewBox="0 0 24 24"><defs><style>.cls-1{fill:#9D9D9D}</style></defs><title>Asset 2</title><g id="Layer_2" data-name="Layer 2"><g id="Layer_1-2" data-name="Layer 1"><path class="cls-1" d="M18,22H6a3,3,0,0,1-3-3V14.87A4,4,0,0,0,4,15H5a4,4,0,0,0,3-1.36A4,4,0,0,0,11,15h2a4,4,0,0,0,3-1.36A4,4,0,0,0,19,15h1a4,4,0,0,0,1-.13V19A3,3,0,0,1,18,22ZM2,10.11,3.28,4.35A3,3,0,0,1,6.21,2H7V5A1,1,0,1,0,9,5V2h6V5a1,1,0,1,0,2,0V2h.79a3,3,0,0,1,2.93,2.35L22,10.11V11a2,2,0,0,1-2,2H19a2,2,0,0,1-2-2,1,1,0,0,0-2,0,2,2,0,0,1-2,2H11a2,2,0,0,1-2-2,1,1,0,0,0-2,0,2,2,0,0,1-2,2H4a2,2,0,0,1-2-2ZM24,10a1,1,0,0,0,0-.22l-1.3-5.87A5,5,0,0,0,17.79,0H6.21A5,5,0,0,0,1.33,3.92L0,9.78A1,1,0,0,0,0,10v1a4,4,0,0,0,1,2.64V19a5,5,0,0,0,5,5H18a5,5,0,0,0,5-5V13.64A4,4,0,0,0,24,11Z"/></g></g></svg>