<svg xmlns="http://www.w3.org/2000/svg" viewBox="0 0 15.5 17.75"><defs><style>.cls-1,.cls-3{fill:none;stroke:#DA3743;stroke-linecap:round;stroke-linejoin:round;}.cls-2{fill:#DA3743;}.cls-3{stroke-width:0.5px;}</style></defs><title>Asset 4</title><g id="Layer_2" data-name="Layer 2"><g id="Layer_1-2" data-name="Layer 1"><rect class="cls-1" x="6.25" y="6.44" width="0.5" height="7.5"/><rect class="cls-1" x="8.75" y="6.44" width="0.5" height="7.5"/><path class="cls-2" d="M2.75,16.29V4.21h10V16.29ZM.25,3V4.21H1.5V16.29A1.23,1.23,0,0,0,2.75,17.5h10A1.23,1.23,0,0,0,14,16.29V4.21h1.25V3Z"/><path class="cls-3" d="M.25,3V4.21H1.5V16.29A1.23,1.23,0,0,0,2.75,17.5h10A1.23,1.23,0,0,0,14,16.29V4.21h1.25V3Z"/><rect class="cls-1" x="5.25" y="0.5" width="5" height="0.5"/></g></g></svg>