<svg width="20" height="20" viewBox="0 0 20 20" fill="none" xmlns="http://www.w3.org/2000/svg">
<path opacity="0.98" fill-rule="evenodd" clip-rule="evenodd" d="M1.96094 2.89847V18.0485C2.1326 18.2736 2.344 18.3147 2.59512 18.1718L6.25931 14.5076L17.3223 14.4724C17.4805 14.4275 17.6332 14.3687 17.7804 14.2962C18.2132 14.0241 18.454 13.6307 18.5026 13.1159C18.5261 11.6244 18.5261 10.1329 18.5026 8.64137C18.4844 8.55209 18.4433 8.47578 18.3793 8.41236C18.1826 8.28968 17.9947 8.30141 17.8156 8.4476C16.9807 9.29416 16.1352 10.128 15.2788 10.9491C15.1427 11.0101 15.0018 11.0571 14.856 11.09C14.1939 11.2225 13.5304 11.3458 12.8654 11.46C12.0959 11.3656 11.7318 10.931 11.7732 10.1564C11.8871 9.59262 11.9987 9.0289 12.1079 8.46521C10.0879 8.4711 8.06787 8.46521 6.04791 8.4476C5.92389 8.42984 5.83581 8.36526 5.78367 8.25382C5.70795 7.96484 5.81954 7.79452 6.11838 7.74294C8.23244 7.73706 10.3464 7.71944 12.4602 7.6901C12.9354 7.19733 13.4169 6.70996 13.9048 6.22794L6.04791 6.19271C5.92389 6.17495 5.83581 6.11037 5.78367 5.99893C5.70795 5.70996 5.81954 5.53964 6.11838 5.48806C8.86652 5.46456 11.6147 5.46456 14.3628 5.48806C14.4282 5.50293 14.4928 5.52055 14.5566 5.54091L17.2166 2.95132C17.4603 2.80894 17.7011 2.66214 17.9389 2.51091C17.9919 2.38623 18.0036 2.25705 17.9741 2.12335C17.7904 1.89332 17.5496 1.75826 17.2519 1.71818C12.5777 1.69469 7.90351 1.69469 3.22931 1.71818C2.5613 1.85194 2.13851 2.24537 1.96094 2.89847ZM10.5929 9.99783C9.10145 9.98021 7.60995 9.97433 6.11838 9.98021C5.90656 10.0098 5.7774 10.1332 5.73082 10.3502C5.7509 10.5463 5.8566 10.6638 6.04791 10.7025C7.58641 10.726 9.12488 10.726 10.6634 10.7025C10.7468 10.6836 10.8173 10.6425 10.8748 10.5792C11.0226 10.27 10.9287 10.0763 10.5929 9.99783ZM20 4.97719V4.343C19.9079 3.99736 19.72 3.70962 19.4363 3.4798C18.8099 3.10748 18.1992 3.13096 17.6042 3.55027L12.9006 8.25381C12.7404 8.94948 12.5936 9.64825 12.4602 10.3501C12.4812 10.5986 12.6163 10.7337 12.8654 10.7553C13.5673 10.622 14.2661 10.4752 14.9617 10.3149L19.6653 5.61137C19.8059 5.41231 19.9174 5.20091 20 4.97719ZM18.4498 5.68184C18.1535 5.3503 17.8364 5.04494 17.4985 4.76579L17.0405 5.25905C17.3341 5.57614 17.6394 5.8815 17.9565 6.17509C18.1327 6.02243 18.2971 5.858 18.4498 5.68184Z" fill="#9D9D9D"/>
</svg>
