<svg xmlns="http://www.w3.org/2000/svg" viewBox="0 0 22 23.48"><defs><style>.cls-1{isolation:isolate;}.cls-2{fill:#9D9D9D;}.cls-3{fill:none;stroke:#9D9D9D;stroke-width:2px;}</style></defs><title>Asset 2</title><g id="Layer_2" data-name="Layer 2"><g id="Layer_1-2" data-name="Layer 1"><g class="cls-1"><path class="cls-2" d="M11,0c2.53,0,11,8.11,11,10.87v7.62a4.81,4.81,0,0,1-4.58,5H4.58a4.81,4.81,0,0,1-4.58-5V10.87C0,8.11,8.47,0,11,0Zm0,2A7.62,7.62,0,0,0,9.14,3.11,29.73,29.73,0,0,0,5.92,5.86C3.16,8.55,2.1,10.4,2,10.91v7.58a2.82,2.82,0,0,0,2.58,3H17.42a2.82,2.82,0,0,0,2.58-3V10.91c-.1-.5-1.16-2.35-3.92-5a29.73,29.73,0,0,0-3.22-2.75A7.62,7.62,0,0,0,11,2"/><path class="cls-3" d="M8,22.48v-6a3,3,0,1,1,6,0v6Z"/></g></g></g></svg>