<svg width="20" height="20" viewBox="0 0 20 20" fill="none" xmlns="http://www.w3.org/2000/svg">
<g clip-path="url(#clip0_162_2593)">
<path opacity="0.994" fill-rule="evenodd" clip-rule="evenodd" d="M9.58984 -0.0195312C9.85027 -0.0195312 10.1107 -0.0195312 10.3711 -0.0195312C11.0377 0.158457 11.5064 0.568613 11.7773 1.21094C12.2982 1.22396 12.819 1.23698 13.3398 1.25C13.5156 1.32161 13.6393 1.44531 13.7109 1.62109C13.737 2.61068 13.737 3.60026 13.7109 4.58984C13.6393 4.76562 13.5156 4.88934 13.3398 4.96094C11.1003 4.98699 8.86066 4.98699 6.62109 4.96094C6.44531 4.88934 6.3216 4.76562 6.24999 4.58984C6.22394 3.60026 6.22394 2.61068 6.24999 1.62109C6.3216 1.44531 6.44531 1.32161 6.62109 1.25C7.14191 1.23698 7.66277 1.22396 8.18359 1.21094C8.45449 0.568613 8.92324 0.158457 9.58984 -0.0195312Z" fill="#9D9D9D"/>
<path opacity="0.993" fill-rule="evenodd" clip-rule="evenodd" d="M16.543 19.9805C12.168 19.9805 7.79297 19.9805 3.41797 19.9805C2.93681 19.8443 2.63082 19.5318 2.5 19.043C2.47396 13.8346 2.47396 8.62629 2.5 3.41797C2.6237 2.92969 2.92969 2.6237 3.41797 2.5C3.93863 2.48047 4.45949 2.47396 4.98047 2.48047C4.96586 3.22387 4.98539 3.96605 5.03906 4.70703C5.29055 5.63558 5.89602 6.13687 6.85547 6.21094C8.93879 6.23699 11.0222 6.23699 13.1055 6.21094C14.0649 6.13687 14.6704 5.63558 14.9219 4.70703C14.9755 3.96605 14.9951 3.22387 14.9805 2.48047C15.5014 2.47396 16.0223 2.48047 16.543 2.5C17.0313 2.6237 17.3372 2.92969 17.4609 3.41797C17.487 8.62629 17.487 13.8346 17.4609 19.043C17.3301 19.5318 17.0241 19.8443 16.543 19.9805ZM9.16016 7.51953C9.83457 7.51004 10.0624 7.82254 9.84375 8.45703C8.96484 9.33594 8.08594 10.2148 7.20703 11.0937C6.97266 11.2239 6.73828 11.2239 6.50391 11.0937C6.04168 10.6315 5.57941 10.1693 5.11719 9.70703C4.91316 9.30187 5.01082 8.9959 5.41016 8.78906C5.60313 8.7484 5.78539 8.77445 5.95703 8.86719C6.24348 9.15363 6.52996 9.44012 6.81641 9.72656C6.84246 9.75262 6.86848 9.75262 6.89453 9.72656C7.63375 8.96773 8.38895 8.23203 9.16016 7.51953ZM11.8555 8.73047C12.7556 8.71301 13.6541 8.73254 14.5508 8.78906C14.8778 8.94176 15.0014 9.19566 14.9219 9.55078C14.8203 9.80676 14.6315 9.94347 14.3555 9.96094C13.4554 9.99793 12.557 9.98492 11.6602 9.92187C11.3332 9.76918 11.2095 9.51527 11.2891 9.16015C11.3993 8.90715 11.5881 8.7639 11.8555 8.73047ZM9.16016 12.5195C9.83457 12.51 10.0624 12.8225 9.84375 13.457C8.96484 14.3359 8.08594 15.2148 7.20703 16.0937C6.97266 16.2239 6.73828 16.2239 6.50391 16.0937C6.04168 15.6315 5.57941 15.1693 5.11719 14.707C4.91316 14.3019 5.01082 13.9959 5.41016 13.7891C5.60313 13.7484 5.78539 13.7745 5.95703 13.8672C6.24348 14.1536 6.52996 14.4401 6.81641 14.7266C6.84246 14.7526 6.86848 14.7526 6.89453 14.7266C7.63375 13.9677 8.38895 13.232 9.16016 12.5195ZM11.8555 13.7305C12.7556 13.713 13.6541 13.7325 14.5508 13.7891C14.8778 13.9418 15.0014 14.1957 14.9219 14.5508C14.8203 14.8068 14.6315 14.9435 14.3555 14.9609C13.4554 14.9979 12.557 14.9849 11.6602 14.9219C11.3332 14.7692 11.2095 14.5153 11.2891 14.1602C11.3993 13.9071 11.5881 13.7639 11.8555 13.7305Z" fill="#9D9D9D"/>
</g>
<defs>
<clipPath id="clip0_162_2593">
<rect width="20" height="20" fill="white"/>
</clipPath>
</defs>
</svg>
